/* XPM */
static char * arrow27_xpm[] = {
"38 27 3 1",
" 	c None",
".	c #000000",
"+	c #FF0000",
"                         ....         ",
"                       ..+++.         ",
"                     ..++++.          ",
"                   ..+++++.           ",
"                 ..++++++.            ",
"               ..+++++++.             ",
"             ..++++++++.              ",
"           ..+++++++++.               ",
"         ..++++++++++.                ",
"       ..+++++++++++.                 ",
"     ..++++++++++++...................",
"   ..++++++++++++++++++++++++++++++++.",
" ..++++++++++++++++++++++++++++++++++.",
".++++++++++++++++++++++++++++++++++++.",
" ..++++++++++++++++++++++++++++++++++.",
"   ..++++++++++++++++++++++++++++++++.",
"     ..++++++++++++...................",
"       ..+++++++++++.                 ",
"         ..++++++++++.                ",
"           ..+++++++++.               ",
"             ..++++++++.              ",
"               ..+++++++.             ",
"                 ..++++++.            ",
"                   ..+++++.           ",
"                     ..++++.          ",
"                       ..+++.         ",
"                         ....         "};
