/* XPM */
static char*go_left_mini[]={
"16 18 44 1",
"u c #172b1d",
"I c #04c153",
"e c #023e15",
"m c #072511",
". c None",
"j c #00db1d",
"a c #616c65",
"l c #21462e",
"t c #a2a6a2",
"i c #07180b",
"q c #036c23",
"x c #023110",
"h c #6b736b",
"g c #031b0a",
"O c #808c80",
"k c #04932c",
"d c #093116",
"E c #5c6c61",
"F c #04c84f",
"y c #063718",
"C c #717c77",
"p c #04832e",
"G c #096325",
"M c #bab8ba",
"N c #919391",
"J c #132015",
"b c #2f372f",
"# c #bcbebc",
"o c #878c87",
"K c #13311d",
"f c #036320",
"r c #68776e",
"D c #04a03a",
"L c #02461b",
"z c #4a574f",
"c c #335c3d",
"H c #c4c4c4",
"v c #09371a",
"n c #00c000",
"A c #0f2515",
"P c #959b95",
"w c #afb2af",
"s c #1d3124",
"B c #04aa3e",
"......#ab##.....",
".....cdefgh.....",
".....#ijjjkl#...",
".....amnjjjeo#..",
".####opjjjneqr..",
"....##mfjjst....",
".uv...wxnjst....",
".mjyztABjjst....",
".CmjnmkjjjDC....",
"..EmjjjjjjFzt...",
"...oGpnjjjFDCH..",
".....tmIjjjFzt..",
".....JnjnGnjFmH.",
"....mnjFmtKFjFmH",
"..mLnjjmM##sFjFm",
".#NmFjmt.###sFDm",
".##OmpOH#...PGmH",
".###Pm...###mmH."};
