/* XPM */
/* 02-Nov-2003 14:22:36 */
/* wrtxpm: Matlab 5.3.1.29215a (R11.1) LNX86 */
static char *logo[] = {
/* width height Ncolor chars_per_pixel Nframe */
"    57    54   216     2     1 ",
/* colors */
"##	c #000000",
"aa	c #000008",
"ab	c #080000",
"ac	c #080808",
"ad	c #080810",
"ae	c #081008",
"af	c #081018",
"ag	c #081021",
"ah	c #0C1429",
"ai	c #100808",
"aj	c #101010",
"ak	c #101018",
"al	c #101818",
"am	c #101821",
"an	c #101829",
"ap	c #102121",
"aq	c #102129",
"ar	c #102139",
"as	c #102142",
"at	c #10294A",
"au	c #12292B",
"av	c #152936",
"aw	c #181002",
"ax	c #181818",
"ay	c #181825",
"az	c #181C31",
"aA	c #182139",
"aB	c #182142",
"aC	c #183952",
"aD	c #1B2944",
"aE	c #1B2B52",
"aF	c #1B3543",
"aG	c #1C1E20",
"aH	c #1C2541",
"aI	c #1D2F39",
"aJ	c #1E3C52",
"aK	c #203154",
"aL	c #203960",
"aM	c #212131",
"aN	c #213942",
"aO	c #224756",
"aP	c #234467",
"aQ	c #244141",
"aR	c #254673",
"aS	c #270E04",
"aT	c #293535",
"aU	c #294A4A",
"aV	c #294A5D",
"aW	c #2B507B",
"aX	c #2D1C1C",
"aY	c #312B1B",
"aZ	c #31595D",
"a0	c #319C9C",
"a1	c #326285",
"a2	c #391008",
"a3	c #391010",
"a4	c #391810",
"a5	c #391818",
"a6	c #392121",
"a7	c #393939",
"a8	c #394A4A",
"a9	c #395656",
"a!	c #39635A",
"a$	c #396763",
"a&	c #396F6B",
"a'	c #39739C",
"a(	c #398484",
"a)	c #398989",
"a*	c #399C9C",
"a+	c #39A9A9",
"a,	c #3A322D",
"a-	c #3D1C18",
"a/	c #3D423D",
"a:	c #3F8C8C",
"a;	c #421008",
"a<	c #421010",
"a=	c #427373",
"a>	c #477C7C",
"a?	c #4A1008",
"a@	c #4A1810",
"a[	c #4A2100",
"a]	c #515C5A",
"a^	c #521008",
"a{	c #527873",
"a|	c #548E86",
"a}	c #5A1008",
"a~	c #5A1808",
"bb	c #5A330B",
"bc	c #5ABDBD",
"bd	c #631808",
"be	c #63847B",
"bf	c #638C84",
"bg	c #63948C",
"bh	c #639C8C",
"bi	c #639C94",
"bj	c #63A594",
"bk	c #63A59C",
"bl	c #63ADA5",
"bm	c #63B5A5",
"bn	c #63BDAD",
"bp	c #63BDB5",
"bq	c #63C6B5",
"br	c #63C6BD",
"bs	c #6B1808",
"bt	c #6B6B6B",
"bu	c #731808",
"bv	c #737373",
"bw	c #7B1808",
"bx	c #7B2108",
"by	c #7B7B7B",
"bz	c #842108",
"bA	c #847B7B",
"bB	c #848484",
"bC	c #885A0C",
"bD	c #8C2108",
"bE	c #8C2908",
"bF	c #8C8C8C",
"bG	c #942908",
"bH	c #943921",
"bI	c #949494",
"bJ	c #9C290C",
"bK	c #9C9C9C",
"bL	c #A03508",
"bM	c #A43F06",
"bN	c #A55A08",
"bO	c #A58C84",
"bP	c #A5A5A5",
"bQ	c #AD2910",
"bR	c #AD3108",
"bS	c #AD4A10",
"bT	c #ADADAD",
"bU	c #B52910",
"bV	c #B53118",
"bW	c #B54208",
"bX	c #B54A08",
"bY	c #B5B5B5",
"bZ	c #BD2908",
"b0	c #BD3108",
"b1	c #BD4229",
"b2	c #BDBDBD",
"b3	c #C14608",
"b4	c #C34F08",
"b5	c #C55A08",
"b6	c #C63108",
"b7	c #C63908",
"b8	c #C64221",
"b9	c #C65231",
"b!	c #C65A42",
"b$	c #C6634A",
"b&	c #C66B52",
"b'	c #C66B5A",
"b(	c #C68473",
"b)	c #C6C629",
"b*	c #C6C6C6",
"b+	c #C97708",
"b,	c #CE3D08",
"b-	c #CE4A08",
"b/	c #CE6308",
"b:	c #CE8C7B",
"b;	c #CECECE",
"b<	c #D66308",
"b=	c #D68C7B",
"b>	c #D69484",
"b?	c #D6948C",
"b@	c #D6D6D6",
"b[	c #D95A18",
"b]	c #DA4A08",
"b^	c #DE6B08",
"b{	c #DE8408",
"b|	c #DE947B",
"b}	c #DEADA5",
"b~	c #DECECE",
"ba	c #E26308",
"cc	c #E45408",
"cd	c #E77308",
"ce	c #E7B5AD",
"cf	c #E7C6BD",
"cg	c #E7E7E7",
"ch	c #E98608",
"ci	c #EC7808",
"cj	c #EF6708",
"ck	c #EF9C08",
"cl	c #EFCECE",
"cm	c #EFF7F7",
"cn	c #F76B08",
"cp	c #F77308",
"cq	c #F77F08",
"cr	c #F78C08",
"cs	c #F79408",
"ct	c #F7A508",
"cu	c #F7E7DE",
"cv	c #F7E7E7",
"cw	c #F7EFEF",
"cx	c #FBE208",
"cy	c #FF8408",
"cz	c #FF8C08",
"cA	c #FF9408",
"cB	c #FF9C08",
"cC	c #FFA508",
"cD	c #FFAD08",
"cE	c #FFB508",
"cF	c #FFBD08",
"cG	c #FFC608",
"cH	c #FFCE08",
"cI	c #FFD608",
"cJ	c #FFDE88",
"cK	c #FFE708",
"cL	c #FFEF08",
"cM	c #FFF7A5",
"cN	c #FFF7EF",
"cO	c #FFFF10",
"cP	c #FFFF31",
"cQ	c #FFFF3D",
"cR	c #FFFF94",
"cS	c #FFFFC6",
"oo	c #FFFFFF",
/* pixels */
"a/a]bAbYb;oooooooooooooooooooooooooooooooooooooooooooooooooooooooooooooooooooooooooooooooooooooooooooooooooooooooo",
"############aGa/bybKb2cwoooooooooooooooooooooooooooooooooooooooooooooooooooooooooooooooooooooooooooooooooooooooooo",
"########################aca/btbybYb@oooooooooooooooooooooooooooooooooooooooooooooooooooooooooooooooooooooooooooooo",
"aVaNaNapaf############################aTa/bybKb2oooooooooooooooooooooooocwb*b~oooooooooooooooooooooooooooooooooooo",
"aWaIaOaOaWaWa1a1aDaJaJakaq####amaq################aka/btbBb2b2oooooooocmbka,bDb(oooooooooooooooooooooooooooooooooo",
"######avaqaeakalahaNaDaFaL####aDasavaDaqadac##am################axa/bvbca8bubRbQb:oooooooooooooooooooooooooooooooo",
"######################akav####acanaqaLaqaPaLaWaBaqaBahalak##########aUa*a@bEb{b-bQbObTb;oooooooooooooooooooooooooo",
"############################################afaaafanaBasaNaLaDazaHaza*a9a~bMcGcrb0bD######aGa]oooooooooooooooooooo",
"aJap####aAaA####aaah##################################ak######afacaUa+a-bsb5cLcGb-bQa@ak####aGoooooooooooooooooooo",
"aJaN####a1a1aWaIaVaLaCasaEap##########ag########################aTa)a$a@bub+cOcxbabUbDapaGaGaMoooooooooooooooooooo",
"am##########aD##avaqaAaAaPat####aka1aKaLaEaAaqanakaD##########aba&a*a6a~bEchcOcLcqb7bQa;####aGoooooooooooooooooooo",
"########################ah########aaagagagaAaqaAataKahaKaKaNaDaUa>a(a;bdbGckcOcOcsb-bUbw####aGoooooooooooooooooooo",
"##########################################################abaTa(a:a7a<bubLctcOcOcDb]b0bQaxabaGoooooooooooooooooooo",
"aJaqavaOazaF######ac########ag############################aca>a(a(a4a}bxbSctcOcOcEbab0bUa~aca,oooooooooooooooooooo",
"aLaVaNaRaVaRaIa1aPaWaRaOaBaqaPazaCaqaqak##########ac##ak##aZa:a:a8a;bdbxbXctcLcOcGcjb7bQbJ##aGoooooooooooooooooooo",
"##############avaaakapapafapasazaLaBaKaq####aDaRaDaLaBahaUa:a(a)a5a@bsbzb4ctcLcOcGcib-bZbQaSaGoooooooooooooooooooo",
"##################################ag############anabagaQa(a>a>a!a<a~bsbEb5ctcxcxcGcrb]b0bQbsaGoooooooooooooooooooo",
"##################################################aja9a>a(a&a(a6a;bdbxbGb[ctcIcKcGcrb[b6bQbQaXoooooooooooooooooooo",
"avaAaVapaF##akadaaag########ac##############abaGaTa&a(a&a$a&a!a<a~bdbxbLb[ctcHcxcGcsbab7bZbQbboooooooooooooooooooo",
"aJaVaOaJaOaDaWaLa'aRaKaWaWaEaPaRaB####azaEaIa&a>a)a>a&a!a9a=a6a<a~bsbEbLb<cBcHcIcGcscnb-bZbQbHoooooooooooooooooooo",
"################aN####aaad##adalaE####adaZa+a0a:a>a$a9a8a9a!a4a?bdbubEbSb<cscFcIcGcCcnb-b0bQbQcwoooooooooooooooooo",
"######################################aQa+a0a(a&a9a8a/a/a$a6a<a~bsbxbzbSb^cscFcGcGcBcqb]b0bUbUceoooooooooooooooooo",
"##ad################################aTa(a&a$a9a8a/a7a,a/a!a4a?a~bsbxbLbSb^crcEcGcGcCcqb[b7bZbQb'oooooooooooooooooo",
"##aRaqanamaqagaqaBaAahaKahagad##akapa8a8a/a/a7a,a,a6a6a$a6a<a@bsbubzbGb4b^crcEcEcEcCcybab7b0bUbVcwoooooooooooooooo",
"##aPaKaFaPaW##aVaBaJaLaKaJaDaq##aDa/a7a,a,a6a6a6a6a6a,a!a4a?a}bsbxbEbLb4cdcrcEcEcGcCcycjb-b0bQbUceoooooooooooooooo",
"################aaas########aTa!bga{a/a6a5a6a-a5a5a-a$a6a<a~a~bubxbEbLb5cdcrcCcEcEcCcrcnb]b0bZbQb&oooooooooooooooo",
"######################aaaUa|blbkbibhbea/a6a-a4a-a4a/a8a4a<a}bdbubzbEbSb4cdcrcCcEcEcCcrcib]b7b0bQbQcwoooooooooooooo",
"############ad####aGa$bmbmblblbkbibibgbea/a6a-a3a4a$a5a<a~a~bubxbEbEbSb5cdcrcCcEcCcEcrcqb[b7b0bUbZb}oooooooooooooo",
"akagaBamapanaBaUa|bqbpbnbmblblbkbibhbgbfbea]a-a4a8a/a<a<a}bdbubxbEbLbSb/cdcrctcCcEcCcscybab,b6bQbQb$oooooooooooooo",
"aVa1araAaJa>bnbrbpbpbnbmbmblbkbkbjbhbgbfbfbebta7a!a4a<a~a~bsbxbxbEbLb3b<cdczctcCcEcCcscycjb]b7b0bQbQcvoooooooooooo",
"####aNa:bpbrbpbpbpbnbnbmblbkbkbkbjbhbgbgbfbebea&a6a<a;a~bsbubxbzbLbLb4b/cicrcscEcCcCcCcycjb[b6b0bQbZb}oooooooooooo",
"##aUbpbqbqbpbpbnbnbnblblblbkbkbkbjbhbgbfbfbfa{a/a4a<a}bdbsbxbxbEbLbSb4b<cicrctcCcEcCcCcyciccb7b0bUbQb$oooooooooooo",
"####aubkbpbnbpbnbnbnblblblbkbkbjbjbhbgbfbfbeaZa-a<a^a~bsbubxbzbEbLbSb5b^cicrcscCcCcCcCcrcqbab,b7b0bQbQcuoooooooooo",
"##adafafa(bnbnbnblblblblblbkbkbjbhbhbgbfbea&a6a4a<a}bdbubxbxbEbLbLb3b5b^cqczcscCcEcCcCcrcqcjb]b7b0bUbUb?oooooooooo",
"aDaWaLaEaDaZblblbnblblblbkbkbkbjbhbhbgbea>a7a4a<a}bdbsbxbxbzbEbLbSb3b<cdcicAcscCcCcCcCcrcycnb[b7b0bUbUb1oooooooooo",
"##########ajala|blblbkbkbkbkbjbhbhbibfa>a8a3a<a}a~bsbubxbxbEbHbMbSb5b/b^cyczcscCcEcCcCcscrcpbab,b0b0bQbUceoooooooo",
"################a9blbkbkbkbkbjbhbhbfa(a9a4a<a~a}bsbsbxbxbzbEbLbWb4b5b<cicycAcscDcCcCcCcscrcpbab-b7b0bUbUb$oooooooo",
"##################aGbgbkbkbjbjbhbfa)a9a5a;a~a~bdbsbxbxbEbEbLbSbSb4b<b^cicycAcscCcCcEcCchbNbMbSb[b7b0bUbUbQcuoooooo",
"####ajacaqaBaqafaBaKava{bibjbfa&a:a!a5a@a@a}bsbsbxbxbzbEbLbHbWb4b5b<cdciczcAcscCcCckbb##ad##amcwb|b7bUbUbUb>oooooo",
"aAaLaLaKaBavav##azakak##aQaQ######aXa^a~bdbsbsbxbxbzbEbLbLbWb4b5b<b^cdcqczcAcscCb+ajaeac####axooooclb8bUbUb1oooooo",
"ad##################################aibdbsbsbxbxbzbEbLbLbSb4b4b/b^cdciczczcAcsb+ae##########akoooooocub1bUbUcfoooo",
"############################ac######ala<bubxbzbEbEbLbSbWb4b5b[b<cdcicqczczcBb+##############axoooooooocvb9bUb&oooo",
"################ac########akaBavaMaqaHaBbsbEbEbLbLbSb4b5b5b<b^cdchcqczczcAb+################akoooooooooocwb!bUcuoo",
"####adaganazanaBaDaDaV####akalazal######a2bGbLbSb3b5b[b<cdcdchcqcqcrczcAb{ajajajacacac######axoooooooooooocwb$b:oo",
"aDaLaLaBaDakanalajabaG####################bGb4b[b<cdchchchcqcrczcscAcAchaSacac##############akoooooooooooooooob=cv",
"apazaf##################################aca[b^b{crckcrcsctcsctcscscscAaY##################a/btoooooooooooooooooocw",
"##############################akaaapajaHaGaHchctcDcDcEcEcEcCcCcDcDctbb########axa/bBbTb@oooooooooooooooooooooooooo",
"##############ac########alazapaKaMajaxac####bCcHcIcIcxcGcIcGcGcEcCbCa/btbIb2cwoooooooooooooooooooooooooooooooooooo",
"######anapayanaAaDaM####afakak##############awcLcKcOcLcOcxcxcGcGcJoooooooooooooooooooooooooooooooooooooooooooooooo",
"azaBaPaAayaDakacab##########################aTb)cOcOcOcOcOcKcxcJoooooooooooooooooooooooooooooooooooooooooooooooooo",
"aBamabaj########################aca/bvbKb2oooocScOcOcOcOcOcOcMoooooooooooooooooooooooooooooooooooooooooooooooooooo",
"######################a,a]bBb2cgoooooooooooooooocQcOcOcOcPcuoooooooooooooooooooooooooooooooooooooooooooooooooooooo",
"##########axa8bybPb;oooooooooooooooooooooooooooocRcOcQcMoooooooooooooooooooooooooooooooooooooooooooooooooooooooooo",
"a/bybFb2cwoooooooooooooooooooooooooooooooooooooocNcNoooooooooooooooooooooooooooooooooooooooooooooooooooooooooooooo"
};
