P3
# Created by Matlab (ppmwrite) 1998-04-14 15:22:34
57 54
255
61 66 61 81 92 90 132 123 123 181 181 181 206 206 206 255 255 255 255
255 255 255 255 255 255 255 255 255 255 255 255 255 255 255 255 255
255 255 255 255 255 255 255 255 255 255 255 255 255 255 255 255 255
255 255 255 255 255 255 255 255 255 255 255 255 255 255 255 255 255
255 255 255 255 255 255 255 255 255 255 255 255 255 255 255 255 255
255 255 255 255 255 255 255 255 255 255 255 255 255 255 255 255 255
255 255 255 255 255 255 255 255 255 255 255 255 255 255 255 255 255
255 255 255 255 255 255 255 255 255 255 255 255 255 255 255 255 255
255 255 255 255 255 255 255 255 255 255 255 255 255 255 255 255 255
255 255 255 255 255 255 255 255 255 255 255 255 255 255 255 255 0 0 0
0 0 0 0 0 0 0 0 0 0 0 0 0 0 0 28 30 32 61 66 61 123 123 123 156 156
156 189 189 189 247 239 239 255 255 255 255 255 255 255 255 255 255
255 255 255 255 255 255 255 255 255 255 255 255 255 255 255 255 255
255 255 255 255 255 255 255 255 255 255 255 255 255 255 255 255 255
255 255 255 255 255 255 255 255 255 255 255 255 255 255 255 255 255
255 255 255 255 255 255 255 255 255 255 255 255 255 255 255 255 255
255 255 255 255 255 255 255 255 255 255 255 255 255 255 255 255 255
255 255 255 255 255 255 255 255 255 255 255 255 255 255 255 255 255
255 255 255 255 255 255 255 255 255 255 255 255 255 255 255 255 255
255 255 255 255 255 255 0 0 0 0 0 0 0 0 0 0 0 0 0 0 0 0 0 0 0 0 0 0 0
0 0 0 0 0 0 0 0 0 0 0 0 0 8 8 8 61 66 61 107 107 107 123 123 123 181
181 181 214 214 214 255 255 255 255 255 255 255 255 255 255 255 255
255 255 255 255 255 255 255 255 255 255 255 255 255 255 255 255 255
255 255 255 255 255 255 255 255 255 255 255 255 255 255 255 255 255
255 255 255 255 255 255 255 255 255 255 255 255 255 255 255 255 255
255 255 255 255 255 255 255 255 255 255 255 255 255 255 255 255 255
255 255 255 255 255 255 255 255 255 255 255 255 255 255 255 255 255
255 255 255 255 255 255 255 255 255 255 255 255 255 255 255 255 255
255 255 255 41 74 93 33 57 66 33 57 66 16 33 33 8 16 24 0 0 0 0 0 0 0
0 0 0 0 0 0 0 0 0 0 0 0 0 0 0 0 0 0 0 0 0 0 0 0 0 0 0 0 0 0 0 0 0 0 0
41 53 53 61 66 61 123 123 123 156 156 156 189 189 189 255 255 255 255
255 255 255 255 255 255 255 255 255 255 255 255 255 255 255 255 255
255 255 255 255 255 255 255 255 255 255 255 255 255 255 255 247 239
239 198 198 198 222 206 206 255 255 255 255 255 255 255 255 255 255
255 255 255 255 255 255 255 255 255 255 255 255 255 255 255 255 255
255 255 255 255 255 255 255 255 255 255 255 255 255 255 255 255 255
255 255 255 255 255 255 255 255 255 255 43 80 123 29 47 57 34 71 86 34
71 86 43 80 123 43 80 123 50 98 133 50 98 133 27 41 68 30 60 82 30 60
82 16 16 24 16 33 41 0 0 0 0 0 0 16 24 33 16 33 41 0 0 0 0 0 0 0 0 0 0
0 0 0 0 0 0 0 0 0 0 0 0 0 0 16 16 24 61 66 61 107 107 107 132 132 132
189 189 189 189 189 189 255 255 255 255 255 255 255 255 255 255 255
255 239 247 247 99 165 156 58 50 45 140 33 8 198 132 115 255 255 255
255 255 255 255 255 255 255 255 255 255 255 255 255 255 255 255 255
255 255 255 255 255 255 255 255 255 255 255 255 255 255 255 255 255
255 255 255 255 255 255 255 255 255 255 255 255 255 255 0 0 0 0 0 0 0
0 0 21 41 54 16 33 41 8 16 8 16 16 24 16 24 24 12 20 41 33 57 66 27 41
68 27 53 67 32 57 96 0 0 0 0 0 0 27 41 68 16 33 66 21 41 54 27 41 68
16 33 41 8 8 16 8 8 8 0 0 0 16 24 33 0 0 0 0 0 0 0 0 0 0 0 0 0 0 0 0 0
0 0 0 0 0 0 0 24 24 24 61 66 61 115 115 115 90 189 189 57 74 74 115 24
8 173 49 8 173 41 16 206 140 123 255 255 255 255 255 255 255 255 255
255 255 255 255 255 255 255 255 255 255 255 255 255 255 255 255 255
255 255 255 255 255 255 255 255 255 255 255 255 255 255 255 255 255
255 255 255 255 255 0 0 0 0 0 0 0 0 0 0 0 0 0 0 0 0 0 0 0 0 0 0 0 0 0
0 0 0 0 0 0 0 0 16 16 24 21 41 54 0 0 0 0 0 0 8 8 8 16 24 41 16 33 41
32 57 96 16 33 41 35 68 103 32 57 96 43 80 123 24 33 66 16 33 41 24 33
66 12 20 41 16 24 24 16 16 24 0 0 0 0 0 0 0 0 0 0 0 0 0 0 0 41 74 74
57 156 156 74 24 16 140 41 8 222 132 8 206 74 8 173 41 16 165 140 132
173 173 173 206 206 206 255 255 255 255 255 255 255 255 255 255 255
255 255 255 255 255 255 255 255 255 255 255 255 255 255 255 255 255
255 255 255 255 255 255 255 255 255 255 255 0 0 0 0 0 0 0 0 0 0 0 0 0
0 0 0 0 0 0 0 0 0 0 0 0 0 0 0 0 0 0 0 0 0 0 0 0 0 0 0 0 0 0 0 0 0 0 0
0 0 0 0 0 0 0 0 0 0 0 0 0 0 0 0 0 0 8 16 24 0 0 8 8 16 24 16 24 41 24
33 66 16 33 66 33 57 66 32 57 96 27 41 68 24 28 49 28 37 65 24 28 49
57 156 156 57 86 86 90 24 8 164 63 6 255 198 8 247 140 8 189 49 8 140
33 8 0 0 0 0 0 0 0 0 0 28 30 32 81 92 90 255 255 255 255 255 255 255
255 255 255 255 255 255 255 255 255 255 255 255 255 255 255 255 255
255 255 255 255 255 255 30 60 82 16 33 33 0 0 0 0 0 0 24 33 57 24 33
57 0 0 0 0 0 0 0 0 8 12 20 41 0 0 0 0 0 0 0 0 0 0 0 0 0 0 0 0 0 0 0 0
0 0 0 0 0 0 0 0 0 0 0 0 0 0 0 0 0 0 0 0 0 0 0 0 0 0 0 0 0 0 0 16 16 24
0 0 0 0 0 0 0 0 0 8 16 24 8 8 8 41 74 74 57 169 169 61 28 24 107 24 8
197 90 8 255 239 8 255 198 8 206 74 8 173 41 16 74 24 16 16 16 24 0 0
0 0 0 0 28 30 32 255 255 255 255 255 255 255 255 255 255 255 255 255
255 255 255 255 255 255 255 255 255 255 255 255 255 255 255 255 255 30
60 82 33 57 66 0 0 0 0 0 0 50 98 133 50 98 133 43 80 123 29 47 57 41
74 93 32 57 96 24 57 82 16 33 66 27 43 82 16 33 33 0 0 0 0 0 0 0 0 0 0
0 0 0 0 0 8 16 33 0 0 0 0 0 0 0 0 0 0 0 0 0 0 0 0 0 0 0 0 0 0 0 0 0 0
0 0 0 0 0 0 0 0 0 0 41 53 53 57 137 137 57 103 99 74 24 16 115 24 8
201 119 8 255 255 16 251 226 8 226 99 8 181 41 16 140 33 8 16 33 33 28
30 32 28 30 32 33 33 49 255 255 255 255 255 255 255 255 255 255 255
255 255 255 255 255 255 255 255 255 255 255 255 255 255 255 255 255
255 255 16 24 33 0 0 0 0 0 0 0 0 0 0 0 0 0 0 0 27 41 68 0 0 0 21 41 54
16 33 41 24 33 57 24 33 57 35 68 103 16 41 74 0 0 0 0 0 0 16 16 24 50
98 133 32 49 84 32 57 96 27 43 82 24 33 57 16 33 41 16 24 41 16 16 24
27 41 68 0 0 0 0 0 0 0 0 0 0 0 0 0 0 0 8 0 0 57 111 107 57 156 156 57
33 33 90 24 8 140 41 8 233 134 8 255 255 16 255 239 8 247 127 8 198 57
8 173 41 16 66 16 8 0 0 0 0 0 0 28 30 32 255 255 255 255 255 255 255
255 255 255 255 255 255 255 255 255 255 255 255 255 255 255 255 255
255 255 255 255 255 255 0 0 0 0 0 0 0 0 0 0 0 0 0 0 0 0 0 0 0 0 0 0 0
0 0 0 0 0 0 0 0 0 0 0 0 0 12 20 41 0 0 0 0 0 0 0 0 0 0 0 0 0 0 8 8 16
33 8 16 33 8 16 33 24 33 57 16 33 41 24 33 57 16 41 74 32 49 84 12 20
41 32 49 84 32 49 84 33 57 66 27 41 68 41 74 74 71 124 124 57 132 132
66 16 8 99 24 8 148 41 8 239 156 8 255 255 16 255 255 16 247 148 8 206
74 8 181 41 16 123 24 8 0 0 0 0 0 0 28 30 32 255 255 255 255 255 255
255 255 255 255 255 255 255 255 255 255 255 255 255 255 255 255 255
255 255 255 255 255 255 255 0 0 0 0 0 0 0 0 0 0 0 0 0 0 0 0 0 0 0 0 0
0 0 0 0 0 0 0 0 0 0 0 0 0 0 0 0 0 0 0 0 0 0 0 0 0 0 0 0 0 0 0 0 0 0 0
0 0 0 0 0 0 0 0 0 0 0 0 0 0 0 0 0 0 0 0 0 0 0 0 0 0 0 0 0 0 0 8 0 0 41
53 53 57 132 132 63 140 140 57 57 57 66 16 16 115 24 8 160 53 8 247
165 8 255 255 16 255 255 16 255 173 8 218 74 8 189 49 8 173 41 16 24
24 24 8 0 0 28 30 32 255 255 255 255 255 255 255 255 255 255 255 255
255 255 255 255 255 255 255 255 255 255 255 255 255 255 255 255 255
255 30 60 82 16 33 41 21 41 54 34 71 86 24 28 49 27 53 67 0 0 0 0 0 0
0 0 0 8 8 8 0 0 0 0 0 0 0 0 0 0 0 0 8 16 33 0 0 0 0 0 0 0 0 0 0 0 0 0
0 0 0 0 0 0 0 0 0 0 0 0 0 0 0 0 0 0 0 0 0 0 0 0 0 0 0 0 0 8 8 8 71 124
124 57 132 132 57 132 132 57 24 16 90 16 8 123 33 8 173 74 16 247 165
8 255 255 16 255 255 16 255 181 8 226 99 8 189 49 8 181 41 16 90 24 8
8 8 8 58 50 45 255 255 255 255 255 255 255 255 255 255 255 255 255 255
255 255 255 255 255 255 255 255 255 255 255 255 255 255 255 255 32 57
96 41 74 93 33 57 66 37 70 115 41 74 93 37 70 115 29 47 57 50 98 133
35 68 103 43 80 123 37 70 115 34 71 86 24 33 66 16 33 41 35 68 103 24
28 49 24 57 82 16 33 41 16 33 41 16 16 24 0 0 0 0 0 0 0 0 0 0 0 0 0 0
0 8 8 8 0 0 0 16 16 24 0 0 0 49 89 93 63 140 140 63 140 140 57 74 74
66 16 8 99 24 8 123 33 8 181 74 8 247 165 8 255 239 8 255 255 16 255
198 8 239 103 8 198 57 8 173 41 16 156 41 12 0 0 0 28 30 32 255 255
255 255 255 255 255 255 255 255 255 255 255 255 255 255 255 255 255
255 255 255 255 255 255 255 255 255 255 255 0 0 0 0 0 0 0 0 0 0 0 0 0
0 0 0 0 0 0 0 0 21 41 54 0 0 8 16 16 24 16 33 33 16 33 33 8 16 24 16
33 33 16 33 66 24 28 49 32 57 96 24 33 66 32 49 84 16 33 41 0 0 0 0 0
0 27 41 68 37 70 115 27 41 68 32 57 96 24 33 66 12 20 41 41 74 74 63
140 140 57 132 132 57 137 137 57 24 24 74 24 16 107 24 8 132 33 8 195
79 8 247 165 8 255 239 8 255 255 16 255 198 8 236 120 8 206 74 8 189
41 8 173 41 16 39 14 4 28 30 32 255 255 255 255 255 255 255 255 255
255 255 255 255 255 255 255 255 255 255 255 255 255 255 255 255 255
255 255 255 255 0 0 0 0 0 0 0 0 0 0 0 0 0 0 0 0 0 0 0 0 0 0 0 0 0 0 0
0 0 0 0 0 0 0 0 0 0 0 0 0 0 0 0 0 0 0 0 0 0 0 0 8 16 33 0 0 0 0 0 0 0
0 0 0 0 0 0 0 0 0 0 0 16 24 41 8 0 0 8 16 33 36 65 65 57 132 132 71
124 124 71 124 124 57 99 90 66 16 16 90 24 8 107 24 8 140 41 8 197 90
8 247 165 8 251 226 8 251 226 8 255 198 8 247 140 8 218 74 8 189 49 8
173 41 16 107 24 8 28 30 32 255 255 255 255 255 255 255 255 255 255
255 255 255 255 255 255 255 255 255 255 255 255 255 255 255 255 255
255 255 255 0 0 0 0 0 0 0 0 0 0 0 0 0 0 0 0 0 0 0 0 0 0 0 0 0 0 0 0 0
0 0 0 0 0 0 0 0 0 0 0 0 0 0 0 0 0 0 0 0 0 0 0 0 0 0 0 0 0 0 0 0 0 0 0
0 0 0 0 0 0 0 0 0 0 0 16 16 16 57 86 86 71 124 124 57 132 132 57 111
107 57 132 132 57 33 33 66 16 8 99 24 8 123 33 8 148 41 8 217 90 24
247 165 8 255 214 8 255 231 8 255 198 8 247 140 8 217 90 24 198 49 8
173 41 16 173 41 16 45 28 28 255 255 255 255 255 255 255 255 255 255
255 255 255 255 255 255 255 255 255 255 255 255 255 255 255 255 255
255 255 255 21 41 54 24 33 57 41 74 93 16 33 33 27 53 67 0 0 0 16 16
24 8 8 16 0 0 8 8 16 33 0 0 0 0 0 0 0 0 0 0 0 0 8 8 8 0 0 0 0 0 0 0 0
0 0 0 0 0 0 0 0 0 0 0 0 0 8 0 0 28 30 32 41 53 53 57 111 107 57 132
132 57 111 107 57 103 99 57 111 107 57 99 90 66 16 16 90 24 8 99 24 8
123 33 8 160 53 8 217 90 24 247 165 8 255 206 8 251 226 8 255 198 8
247 148 8 226 99 8 198 57 8 189 41 8 173 41 16 90 51 11 255 255 255
255 255 255 255 255 255 255 255 255 255 255 255 255 255 255 255 255
255 255 255 255 255 255 255 255 255 255 30 60 82 41 74 93 34 71 86 30
60 82 34 71 86 27 41 68 43 80 123 32 57 96 57 115 156 37 70 115 32 49
84 43 80 123 43 80 123 27 43 82 35 68 103 37 70 115 24 33 66 0 0 0 0 0
0 24 28 49 27 43 82 29 47 57 57 111 107 71 124 124 57 137 137 71 124
124 57 111 107 57 99 90 57 86 86 66 115 115 57 33 33 66 16 16 90 24 8
107 24 8 140 41 8 160 53 8 214 99 8 255 156 8 255 206 8 255 214 8 255
198 8 247 148 8 247 107 8 206 74 8 189 41 8 173 41 16 148 57 33 255
255 255 255 255 255 255 255 255 255 255 255 255 255 255 255 255 255
255 255 255 255 255 255 255 255 255 255 255 255 0 0 0 0 0 0 0 0 0 0 0
0 0 0 0 0 0 0 0 0 0 0 0 0 33 57 66 0 0 0 0 0 0 0 0 8 8 8 16 0 0 0 8 8
16 16 24 24 27 43 82 0 0 0 0 0 0 8 8 16 49 89 93 57 169 169 49 156 156
63 140 140 71 124 124 57 103 99 57 86 86 57 74 74 57 86 86 57 99 90 57
24 16 74 16 8 99 24 8 115 24 8 140 41 8 173 74 16 214 99 8 247 148 8
255 189 8 255 214 8 255 198 8 255 165 8 247 107 8 206 74 8 189 49 8
173 41 16 173 41 16 247 239 239 255 255 255 255 255 255 255 255 255
255 255 255 255 255 255 255 255 255 255 255 255 255 255 255 255 255
255 0 0 0 0 0 0 0 0 0 0 0 0 0 0 0 0 0 0 0 0 0 0 0 0 0 0 0 0 0 0 0 0 0
0 0 0 0 0 0 0 0 0 0 0 0 0 0 0 0 0 0 0 0 0 0 0 0 36 65 65 57 169 169 49
156 156 57 132 132 57 111 107 57 86 86 57 74 74 61 66 61 61 66 61 57
103 99 57 33 33 66 16 16 90 24 8 107 24 8 123 33 8 132 33 8 173 74 16
222 107 8 247 148 8 255 189 8 255 198 8 255 198 8 255 156 8 247 127 8
218 74 8 189 49 8 181 41 16 181 41 16 231 181 173 255 255 255 255 255
255 255 255 255 255 255 255 255 255 255 255 255 255 255 255 255 255
255 255 255 255 255 0 0 0 8 8 16 0 0 0 0 0 0 0 0 0 0 0 0 0 0 0 0 0 0 0
0 0 0 0 0 0 0 0 0 0 0 0 0 0 0 0 0 0 0 0 0 0 0 0 0 0 0 0 0 41 53 53 57
132 132 57 111 107 57 103 99 57 86 86 57 74 74 61 66 61 57 57 57 58 50
45 61 66 61 57 99 90 57 24 16 74 16 8 90 24 8 107 24 8 123 33 8 160 53
8 173 74 16 222 107 8 247 140 8 255 181 8 255 198 8 255 198 8 255 165
8 247 127 8 217 90 24 198 57 8 189 41 8 173 41 16 198 107 90 255 255
255 255 255 255 255 255 255 255 255 255 255 255 255 255 255 255 255
255 255 255 255 255 255 255 255 0 0 0 37 70 115 16 33 41 16 24 41 16
24 33 16 33 41 8 16 33 16 33 41 24 33 66 24 33 57 12 20 41 32 49 84 12
20 41 8 16 33 8 8 16 0 0 0 16 16 24 16 33 33 57 74 74 57 74 74 61 66
61 61 66 61 57 57 57 58 50 45 58 50 45 57 33 33 57 33 33 57 103 99 57
33 33 66 16 16 74 24 16 107 24 8 115 24 8 132 33 8 148 41 8 195 79 8
222 107 8 247 140 8 255 181 8 255 181 8 255 181 8 255 165 8 255 132 8
226 99 8 198 57 8 189 49 8 181 41 16 181 49 24 247 239 239 255 255 255
255 255 255 255 255 255 255 255 255 255 255 255 255 255 255 255 255
255 255 255 255 0 0 0 35 68 103 32 49 84 27 53 67 35 68 103 43 80 123
0 0 0 41 74 93 24 33 66 30 60 82 32 57 96 32 49 84 30 60 82 27 41 68
16 33 41 0 0 0 27 41 68 61 66 61 57 57 57 58 50 45 58 50 45 57 33 33
57 33 33 57 33 33 57 33 33 57 33 33 58 50 45 57 99 90 57 24 16 74 16 8
90 16 8 107 24 8 123 33 8 140 41 8 160 53 8 195 79 8 231 115 8 247 140
8 255 181 8 255 181 8 255 198 8 255 165 8 255 132 8 239 103 8 206 74 8
189 49 8 173 41 16 181 41 16 231 181 173 255 255 255 255 255 255 255
255 255 255 255 255 255 255 255 255 255 255 255 255 255 255 255 255 0
0 0 0 0 0 0 0 0 0 0 0 0 0 0 0 0 0 0 0 0 0 0 0 0 0 8 16 33 66 0 0 0 0 0
0 0 0 0 0 0 0 41 53 53 57 99 90 99 148 140 82 120 115 61 66 61 57 33
33 57 24 24 57 33 33 61 28 24 57 24 24 57 24 24 61 28 24 57 103 99 57
33 33 66 16 16 90 24 8 90 24 8 115 24 8 123 33 8 140 41 8 160 53 8 197
90 8 231 115 8 247 140 8 255 165 8 255 181 8 255 181 8 255 165 8 247
140 8 247 107 8 218 74 8 189 49 8 189 41 8 173 41 16 198 107 82 255
255 255 255 255 255 255 255 255 255 255 255 255 255 255 255 255 255
255 255 255 255 255 255 0 0 0 0 0 0 0 0 0 0 0 0 0 0 0 0 0 0 0 0 0 0 0
0 0 0 0 0 0 0 0 0 0 0 0 8 41 74 74 84 142 134 99 173 165 99 165 156 99
156 148 99 156 140 99 132 123 61 66 61 57 33 33 61 28 24 57 24 16 61
28 24 57 24 16 61 66 61 57 74 74 57 24 16 66 16 16 90 16 8 99 24 8 115
24 8 132 33 8 140 41 8 173 74 16 195 79 8 231 115 8 247 140 8 255 165
8 255 181 8 255 181 8 255 165 8 247 140 8 236 120 8 218 74 8 198 57 8
189 49 8 173 41 16 173 41 16 247 239 239 255 255 255 255 255 255 255
255 255 255 255 255 255 255 255 255 255 255 255 255 255 0 0 0 0 0 0 0
0 0 0 0 0 0 0 0 0 0 0 8 8 16 0 0 0 0 0 0 28 30 32 57 103 99 99 181 165
99 181 165 99 173 165 99 173 165 99 165 156 99 156 148 99 156 148 99
148 140 99 132 123 61 66 61 57 33 33 61 28 24 57 16 16 57 24 16 57 103
99 57 24 24 66 16 16 90 24 8 90 24 8 115 24 8 123 33 8 140 41 8 140 41
8 173 74 16 197 90 8 231 115 8 247 140 8 255 165 8 255 181 8 255 165 8
255 181 8 247 140 8 247 127 8 217 90 24 198 57 8 189 49 8 181 41 16
189 41 8 222 173 165 255 255 255 255 255 255 255 255 255 255 255 255
255 255 255 255 255 255 255 255 255 16 16 24 8 16 33 24 33 66 16 24 33
16 33 33 16 24 41 24 33 66 41 74 74 84 142 134 99 198 181 99 189 181
99 189 173 99 181 165 99 173 165 99 173 165 99 165 156 99 156 148 99
156 140 99 148 140 99 140 132 99 132 123 81 92 90 61 28 24 57 24 16 57
74 74 61 66 61 66 16 16 66 16 16 90 16 8 99 24 8 115 24 8 123 33 8 140
41 8 160 53 8 173 74 16 206 99 8 231 115 8 247 140 8 247 165 8 255 165
8 255 181 8 255 165 8 247 148 8 255 132 8 226 99 8 206 61 8 198 49 8
173 41 16 173 41 16 198 99 74 255 255 255 255 255 255 255 255 255 255
255 255 255 255 255 255 255 255 255 255 255 41 74 93 50 98 133 16 33
57 24 33 57 30 60 82 71 124 124 99 189 173 99 198 189 99 189 181 99
189 181 99 189 173 99 181 165 99 181 165 99 173 165 99 165 156 99 165
156 99 165 148 99 156 140 99 148 140 99 140 132 99 140 132 99 132 123
107 107 107 57 57 57 57 99 90 57 24 16 66 16 16 90 24 8 90 24 8 107 24
8 123 33 8 123 33 8 140 41 8 160 53 8 193 70 8 214 99 8 231 115 8 255
140 8 247 165 8 255 165 8 255 181 8 255 165 8 247 148 8 255 132 8 239
103 8 218 74 8 198 57 8 189 49 8 173 41 16 173 41 16 247 231 231 255
255 255 255 255 255 255 255 255 255 255 255 255 255 255 255 255 255 0
0 0 0 0 0 33 57 66 63 140 140 99 189 181 99 198 189 99 189 181 99 189
181 99 189 181 99 189 173 99 189 173 99 181 165 99 173 165 99 165 156
99 165 156 99 165 156 99 165 148 99 156 140 99 148 140 99 148 140 99
140 132 99 132 123 99 132 123 57 111 107 57 33 33 66 16 16 66 16 8 90
24 8 107 24 8 115 24 8 123 33 8 132 33 8 160 53 8 160 53 8 195 79 8
206 99 8 236 120 8 247 140 8 247 148 8 255 181 8 255 165 8 255 165 8
255 165 8 255 132 8 239 103 8 217 90 24 198 49 8 189 49 8 173 41 16
189 41 8 222 173 165 255 255 255 255 255 255 255 255 255 255 255 255
255 255 255 255 255 255 0 0 0 41 74 74 99 189 181 99 198 181 99 198
181 99 189 181 99 189 181 99 189 173 99 189 173 99 189 173 99 173 165
99 173 165 99 173 165 99 165 156 99 165 156 99 165 156 99 165 148 99
156 140 99 148 140 99 140 132 99 140 132 99 140 132 82 120 115 61 66
61 57 24 16 66 16 16 90 16 8 99 24 8 107 24 8 123 33 8 123 33 8 140 41
8 160 53 8 173 74 16 195 79 8 214 99 8 236 120 8 247 140 8 247 165 8
255 165 8 255 181 8 255 165 8 255 165 8 255 132 8 236 120 8 228 84 8
198 57 8 189 49 8 181 41 16 173 41 16 198 99 74 255 255 255 255 255
255 255 255 255 255 255 255 255 255 255 255 255 255 0 0 0 0 0 0 18 41
43 99 165 156 99 189 181 99 189 173 99 189 181 99 189 173 99 189 173
99 189 173 99 173 165 99 173 165 99 173 165 99 165 156 99 165 156 99
165 148 99 165 148 99 156 140 99 148 140 99 140 132 99 140 132 99 132
123 49 89 93 61 28 24 66 16 16 82 16 8 90 24 8 107 24 8 115 24 8 123
33 8 132 33 8 140 41 8 160 53 8 173 74 16 197 90 8 222 107 8 236 120 8
247 140 8 247 148 8 255 165 8 255 165 8 255 165 8 255 165 8 247 140 8
247 127 8 226 99 8 206 61 8 198 57 8 189 49 8 173 41 16 173 41 16 247
231 222 255 255 255 255 255 255 255 255 255 255 255 255 255 255 255 0
0 0 8 8 16 8 16 24 8 16 24 57 132 132 99 189 173 99 189 173 99 189 173
99 173 165 99 173 165 99 173 165 99 173 165 99 173 165 99 165 156 99
165 156 99 165 148 99 156 140 99 156 140 99 148 140 99 140 132 99 132
123 57 111 107 57 33 33 57 24 16 66 16 16 90 16 8 99 24 8 115 24 8 123
33 8 123 33 8 140 41 8 160 53 8 160 53 8 193 70 8 197 90 8 222 107 8
247 127 8 255 140 8 247 148 8 255 165 8 255 181 8 255 165 8 255 165 8
247 140 8 247 127 8 239 103 8 218 74 8 198 57 8 189 49 8 181 41 16 181
41 16 214 148 140 255 255 255 255 255 255 255 255 255 255 255 255 255
255 255 27 41 68 43 80 123 32 57 96 27 43 82 27 41 68 49 89 93 99 173
165 99 173 165 99 189 173 99 173 165 99 173 165 99 173 165 99 165 156
99 165 156 99 165 156 99 165 148 99 156 140 99 156 140 99 148 140 99
132 123 71 124 124 57 57 57 57 24 16 66 16 16 90 16 8 99 24 8 107 24 8
123 33 8 123 33 8 132 33 8 140 41 8 160 53 8 173 74 16 193 70 8 214 99
8 231 115 8 236 120 8 255 148 8 247 148 8 255 165 8 255 165 8 255 165
8 255 165 8 247 140 8 255 132 8 247 107 8 217 90 24 198 57 8 189 49 8
181 41 16 181 41 16 189 66 41 255 255 255 255 255 255 255 255 255 255
255 255 255 255 255 0 0 0 0 0 0 0 0 0 0 0 0 0 0 0 16 16 16 16 24 24 84
142 134 99 173 165 99 173 165 99 165 156 99 165 156 99 165 156 99 165
156 99 165 148 99 156 140 99 156 140 99 156 148 99 140 132 71 124 124
57 74 74 57 16 16 66 16 16 90 16 8 90 24 8 107 24 8 115 24 8 123 33 8
123 33 8 140 41 8 148 57 33 164 63 6 173 74 16 197 90 8 206 99 8 222
107 8 255 132 8 255 140 8 247 148 8 255 165 8 255 181 8 255 165 8 255
165 8 247 148 8 247 140 8 247 115 8 226 99 8 206 61 8 189 49 8 189 49
8 173 41 16 181 41 16 231 181 173 255 255 255 255 255 255 255 255 255
255 255 255 0 0 0 0 0 0 0 0 0 0 0 0 0 0 0 0 0 0 0 0 0 0 0 0 57 86 86
99 173 165 99 165 156 99 165 156 99 165 156 99 165 156 99 165 148 99
156 140 99 156 140 99 140 132 57 132 132 57 86 86 57 24 16 66 16 16 90
24 8 90 16 8 107 24 8 107 24 8 123 33 8 123 33 8 132 33 8 140 41 8 160
53 8 181 66 8 195 79 8 197 90 8 214 99 8 236 120 8 255 132 8 255 148 8
247 148 8 255 173 8 255 165 8 255 165 8 255 165 8 247 148 8 247 140 8
247 115 8 226 99 8 206 74 8 198 57 8 189 49 8 181 41 16 181 41 16 198
99 74 255 255 255 255 255 255 255 255 255 255 255 255 0 0 0 0 0 0 0 0
0 0 0 0 0 0 0 0 0 0 0 0 0 0 0 0 0 0 0 28 30 32 99 148 140 99 165 156
99 165 156 99 165 148 99 165 148 99 156 140 99 140 132 57 137 137 57
86 86 57 24 24 66 16 8 90 24 8 90 24 8 99 24 8 107 24 8 123 33 8 123
33 8 140 41 8 140 41 8 160 53 8 173 74 16 173 74 16 195 79 8 214 99 8
222 107 8 236 120 8 255 132 8 255 148 8 247 148 8 255 165 8 255 165 8
255 181 8 255 165 8 233 134 8 165 90 8 164 63 6 173 74 16 217 90 24
198 57 8 189 49 8 181 41 16 181 41 16 173 41 16 247 231 222 255 255
255 255 255 255 255 255 255 0 0 0 0 0 0 16 16 16 8 8 8 16 33 41 24 33
66 16 33 41 8 16 24 24 33 66 32 49 84 21 41 54 82 120 115 99 156 148
99 165 148 99 140 132 57 111 107 63 140 140 57 99 90 57 24 24 74 24 16
74 24 16 90 16 8 107 24 8 107 24 8 123 33 8 123 33 8 132 33 8 140 41 8
160 53 8 148 57 33 181 66 8 195 79 8 197 90 8 214 99 8 231 115 8 236
120 8 255 140 8 255 148 8 247 148 8 255 165 8 255 165 8 239 156 8 90
51 11 0 0 0 8 8 16 0 0 0 16 24 33 247 239 239 222 148 123 198 57 8 181
41 16 181 41 16 181 41 16 214 148 132 255 255 255 255 255 255 255 255
255 24 33 57 32 57 96 32 57 96 32 49 84 24 33 66 21 41 54 21 41 54 0 0
0 24 28 49 16 16 24 16 16 24 0 0 0 36 65 65 36 65 65 0 0 0 0 0 0 0 0 0
45 28 28 82 16 8 90 24 8 99 24 8 107 24 8 107 24 8 123 33 8 123 33 8
132 33 8 140 41 8 160 53 8 160 53 8 181 66 8 195 79 8 197 90 8 214 99
8 222 107 8 231 115 8 247 127 8 255 140 8 255 148 8 247 148 8 255 165
8 201 119 8 16 16 16 8 16 8 8 8 8 0 0 0 0 0 0 24 24 24 255 255 255 255
255 255 239 206 206 198 66 33 181 41 16 181 41 16 189 66 41 255 255
255 255 255 255 255 255 255 8 8 16 0 0 0 0 0 0 0 0 0 0 0 0 0 0 0 0 0 0
0 0 0 0 0 0 0 0 0 0 0 0 0 0 0 0 0 0 0 0 0 0 0 0 0 0 0 0 0 0 0 0 0 16 8
8 99 24 8 107 24 8 107 24 8 123 33 8 123 33 8 132 33 8 140 41 8 160 53
8 160 53 8 173 74 16 195 79 8 195 79 8 206 99 8 222 107 8 231 115 8
236 120 8 255 140 8 255 140 8 255 148 8 247 148 8 201 119 8 8 16 8 0 0
0 0 0 0 0 0 0 0 0 0 0 0 0 16 16 24 255 255 255 255 255 255 255 255 255
247 231 222 189 66 41 181 41 16 181 41 16 231 198 189 255 255 255 255
255 255 0 0 0 0 0 0 0 0 0 0 0 0 0 0 0 0 0 0 0 0 0 0 0 0 0 0 0 0 0 0 0
0 0 0 0 0 0 0 0 0 0 0 8 8 8 0 0 0 0 0 0 0 0 0 16 24 24 66 16 16 115 24
8 123 33 8 132 33 8 140 41 8 140 41 8 160 53 8 173 74 16 181 66 8 195
79 8 197 90 8 217 90 24 214 99 8 231 115 8 236 120 8 247 127 8 255 140
8 255 140 8 255 156 8 201 119 8 0 0 0 0 0 0 0 0 0 0 0 0 0 0 0 0 0 0 0
0 0 24 24 24 255 255 255 255 255 255 255 255 255 255 255 255 247 231
231 198 82 49 181 41 16 198 107 82 255 255 255 255 255 255 0 0 0 0 0 0
0 0 0 0 0 0 0 0 0 0 0 0 0 0 0 0 0 0 8 8 8 0 0 0 0 0 0 0 0 0 0 0 0 16
16 24 24 33 66 21 41 54 33 33 49 16 33 41 28 37 65 24 33 66 107 24 8
140 41 8 140 41 8 160 53 8 160 53 8 173 74 16 195 79 8 197 90 8 197 90
8 214 99 8 222 107 8 231 115 8 233 134 8 247 127 8 255 140 8 255 140 8
255 148 8 201 119 8 0 0 0 0 0 0 0 0 0 0 0 0 0 0 0 0 0 0 0 0 0 0 0 0 16
16 24 255 255 255 255 255 255 255 255 255 255 255 255 255 255 255 247
239 239 198 90 66 181 41 16 247 231 222 255 255 255 0 0 0 0 0 0 8 8 16
8 16 33 16 24 41 24 28 49 16 24 41 24 33 66 27 41 68 27 41 68 41 74 93
0 0 0 0 0 0 16 16 24 16 24 24 24 28 49 16 24 24 0 0 0 0 0 0 0 0 0 57
16 8 148 41 8 160 53 8 173 74 16 193 70 8 197 90 8 217 90 24 214 99 8
231 115 8 231 115 8 233 134 8 247 127 8 247 127 8 247 140 8 255 140 8
255 148 8 222 132 8 16 16 16 16 16 16 16 16 16 8 8 8 8 8 8 8 8 8 0 0 0
0 0 0 0 0 0 24 24 24 255 255 255 255 255 255 255 255 255 255 255 255
255 255 255 255 255 255 247 239 239 198 99 74 206 140 123 255 255 255
27 41 68 32 57 96 32 57 96 24 33 66 27 41 68 16 16 24 16 24 41 16 24
24 16 16 16 8 0 0 28 30 32 0 0 0 0 0 0 0 0 0 0 0 0 0 0 0 0 0 0 0 0 0 0
0 0 0 0 0 0 0 0 148 41 8 195 79 8 217 90 24 214 99 8 231 115 8 233 134
8 233 134 8 233 134 8 247 127 8 247 140 8 255 140 8 247 148 8 255 148
8 255 148 8 233 134 8 39 14 4 8 8 8 8 8 8 0 0 0 0 0 0 0 0 0 0 0 0 0 0
0 0 0 0 0 0 0 16 16 24 255 255 255 255 255 255 255 255 255 255 255 255
255 255 255 255 255 255 255 255 255 255 255 255 214 140 123 247 231
231 16 33 33 24 28 49 8 16 24 0 0 0 0 0 0 0 0 0 0 0 0 0 0 0 0 0 0 0 0
0 0 0 0 0 0 0 0 0 0 0 0 0 0 0 0 0 0 0 0 0 0 0 0 0 0 0 0 0 0 0 8 8 8 74
33 0 222 107 8 222 132 8 247 140 8 239 156 8 247 140 8 247 148 8 247
165 8 247 148 8 247 165 8 247 148 8 247 148 8 247 148 8 255 148 8 49
43 27 0 0 0 0 0 0 0 0 0 0 0 0 0 0 0 0 0 0 0 0 0 0 0 0 0 0 0 61 66 61
107 107 107 255 255 255 255 255 255 255 255 255 255 255 255 255 255
255 255 255 255 255 255 255 255 255 255 255 255 255 247 239 239 0 0 0
0 0 0 0 0 0 0 0 0 0 0 0 0 0 0 0 0 0 0 0 0 0 0 0 0 0 0 0 0 0 0 0 0 0 0
0 0 0 0 0 0 0 16 16 24 0 0 8 16 33 33 16 16 16 28 37 65 28 30 32 28 37
65 233 134 8 247 165 8 255 173 8 255 173 8 255 181 8 255 181 8 255 181
8 255 165 8 255 165 8 255 173 8 255 173 8 247 165 8 90 51 11 0 0 0 0 0
0 0 0 0 0 0 0 24 24 24 61 66 61 132 132 132 173 173 173 214 214 214
255 255 255 255 255 255 255 255 255 255 255 255 255 255 255 255 255
255 255 255 255 255 255 255 255 255 255 255 255 255 255 255 255 255
255 255 255 255 255 0 0 0 0 0 0 0 0 0 0 0 0 0 0 0 0 0 0 0 0 0 8 8 8 0
0 0 0 0 0 0 0 0 0 0 0 16 24 24 24 28 49 16 33 33 32 49 84 33 33 49 16
16 16 24 24 24 8 8 8 0 0 0 0 0 0 136 90 12 255 206 8 255 214 8 255 214
8 251 226 8 255 198 8 255 214 8 255 198 8 255 198 8 255 181 8 255 165
8 136 90 12 61 66 61 107 107 107 148 148 148 189 189 189 247 239 239
255 255 255 255 255 255 255 255 255 255 255 255 255 255 255 255 255
255 255 255 255 255 255 255 255 255 255 255 255 255 255 255 255 255
255 255 255 255 255 255 255 255 255 255 255 255 255 255 255 255 255
255 255 255 0 0 0 0 0 0 0 0 0 16 24 41 16 33 33 24 24 37 16 24 41 24
33 57 27 41 68 33 33 49 0 0 0 0 0 0 8 16 24 16 16 24 16 16 24 0 0 0 0
0 0 0 0 0 0 0 0 0 0 0 0 0 0 0 0 0 24 16 2 255 239 8 255 231 8 255 255
16 255 239 8 255 255 16 251 226 8 251 226 8 255 198 8 255 198 8 255
222 136 255 255 255 255 255 255 255 255 255 255 255 255 255 255 255
255 255 255 255 255 255 255 255 255 255 255 255 255 255 255 255 255
255 255 255 255 255 255 255 255 255 255 255 255 255 255 255 255 255
255 255 255 255 255 255 255 255 255 255 255 255 255 255 255 255 255
255 255 255 255 255 255 24 28 49 24 33 66 35 68 103 24 33 57 24 24 37
27 41 68 16 16 24 8 8 8 8 0 0 0 0 0 0 0 0 0 0 0 0 0 0 0 0 0 0 0 0 0 0
0 0 0 0 0 0 0 0 0 0 0 0 0 0 0 0 0 0 0 41 53 53 198 198 41 255 255 16
255 255 16 255 255 16 255 255 16 255 255 16 255 231 8 251 226 8 255
222 136 255 255 255 255 255 255 255 255 255 255 255 255 255 255 255
255 255 255 255 255 255 255 255 255 255 255 255 255 255 255 255 255
255 255 255 255 255 255 255 255 255 255 255 255 255 255 255 255 255
255 255 255 255 255 255 255 255 255 255 255 255 255 255 255 255 255
255 255 255 255 255 255 255 255 255 24 33 66 16 24 33 8 0 0 16 16 16 0
0 0 0 0 0 0 0 0 0 0 0 0 0 0 0 0 0 0 0 0 0 0 0 0 0 0 0 0 0 0 0 0 0 0 0
8 8 8 61 66 61 115 115 115 156 156 156 189 189 189 255 255 255 255 255
255 255 255 198 255 255 16 255 255 16 255 255 16 255 255 16 255 255 16
255 255 16 255 247 165 255 255 255 255 255 255 255 255 255 255 255 255
255 255 255 255 255 255 255 255 255 255 255 255 255 255 255 255 255
255 255 255 255 255 255 255 255 255 255 255 255 255 255 255 255 255
255 255 255 255 255 255 255 255 255 255 255 255 255 255 255 255 255
255 255 255 255 255 255 255 255 255 255 255 255 255 255 255 0 0 0 0 0
0 0 0 0 0 0 0 0 0 0 0 0 0 0 0 0 0 0 0 0 0 0 0 0 0 0 0 0 58 50 45 81 92
90 132 132 132 189 189 189 231 231 231 255 255 255 255 255 255 255 255
255 255 255 255 255 255 255 255 255 255 255 255 255 255 255 255 255
255 61 255 255 16 255 255 16 255 255 16 255 255 49 247 231 222 255 255
255 255 255 255 255 255 255 255 255 255 255 255 255 255 255 255 255
255 255 255 255 255 255 255 255 255 255 255 255 255 255 255 255 255
255 255 255 255 255 255 255 255 255 255 255 255 255 255 255 255 255
255 255 255 255 255 255 255 255 255 255 255 255 255 255 255 255 255
255 255 255 255 255 255 255 255 255 255 255 0 0 0 0 0 0 0 0 0 0 0 0 0
0 0 24 24 24 57 74 74 123 123 123 165 165 165 206 206 206 255 255 255
255 255 255 255 255 255 255 255 255 255 255 255 255 255 255 255 255
255 255 255 255 255 255 255 255 255 255 255 255 255 255 255 255 255
255 255 255 255 255 255 255 148 255 255 16 255 255 61 255 247 165 255
255 255 255 255 255 255 255 255 255 255 255 255 255 255 255 255 255
255 255 255 255 255 255 255 255 255 255 255 255 255 255 255 255 255
255 255 255 255 255 255 255 255 255 255 255 255 255 255 255 255 255
255 255 255 255 255 255 255 255 255 255 255 255 255 255 255 255 255
255 255 255 255 255 255 255 255 255 255 255 255 255 255 255 255 255
255 61 66 61 123 123 123 140 140 140 189 189 189 247 239 239 255 255
255 255 255 255 255 255 255 255 255 255 255 255 255 255 255 255 255
255 255 255 255 255 255 255 255 255 255 255 255 255 255 255 255 255
255 255 255 255 255 255 255 255 255 255 255 255 255 255 255 255 255
255 255 255 255 255 247 239 255 247 239 255 255 255 255 255 255 255
255 255 255 255 255 255 255 255 255 255 255 255 255 255 255 255 255
255 255 255 255 255 255 255 255 255 255 255 255 255 255 255 255 255
255 255 255 255 255 255 255 255 255 255 255 255 255 255 255 255 255
255 255 255 255 255 255 255 255 255 255 255 255 255 255 255 255 255
255 255 255 255 255 255 255 255 255 255 255 255 255 255 255 255 255
255
