/* XPM */
static char * matlab6_xpm[] = {
"20 20 133 2",
"  	c None",
". 	c #7C321A",
"+ 	c #BB4D1E",
"@ 	c #C47814",
"# 	c #3A5452",
"$ 	c #D16F15",
"% 	c #E5AF12",
"& 	c #402E21",
"* 	c #43787E",
"= 	c #AE3510",
"- 	c #E59211",
"; 	c #EFC112",
"> 	c #66230C",
", 	c #2E5060",
"' 	c #B13912",
") 	c #EDAA10",
"! 	c #F1B50E",
"~ 	c #883611",
"{ 	c #1A1A1D",
"] 	c #477B84",
"^ 	c #B64015",
"/ 	c #EFAD0F",
"( 	c #9F3C15",
"_ 	c #321307",
": 	c #2A4448",
"< 	c #325B68",
"[ 	c #487681",
"} 	c #B14120",
"| 	c #C75717",
"1 	c #F4AC0A",
"2 	c #F1AB0D",
"3 	c #AC4114",
"4 	c #56210C",
"5 	c #192625",
"6 	c #0D1417",
"7 	c #1F343E",
"8 	c #345D6B",
"9 	c #CD5E19",
"0 	c #F4B10A",
"a 	c #F2A50B",
"b 	c #BB4E17",
"c 	c #7F2B0F",
"d 	c #210D05",
"e 	c #1D2B2A",
"f 	c #0D0502",
"g 	c #060201",
"h 	c #292F2E",
"i 	c #B34E31",
"j 	c #E27C13",
"k 	c #F3A50A",
"l 	c #F19B0B",
"m 	c #C15419",
"n 	c #862D0F",
"o 	c #3A1608",
"p 	c #0D1717",
"q 	c #0D1416",
"r 	c #24302F",
"s 	c #559A98",
"t 	c #5A9E9C",
"u 	c #61AFAE",
"v 	c #55AFAE",
"w 	c #B14322",
"x 	c #B74016",
"y 	c #E68111",
"z 	c #F4AB0A",
"A 	c #F1990A",
"B 	c #C95917",
"C 	c #A33310",
"D 	c #64250D",
"E 	c #381608",
"F 	c #283736",
"G 	c #5A9B99",
"H 	c #649D9B",
"I 	c #63A3A1",
"J 	c #5BB2B1",
"K 	c #66B9BA",
"L 	c #5EB3B5",
"M 	c #56A3A4",
"N 	c #AF3611",
"O 	c #C24E1A",
"P 	c #EB8F0F",
"Q 	c #F1940A",
"R 	c #D2651D",
"S 	c #9F3511",
"T 	c #902F0F",
"U 	c #5D240E",
"V 	c #1A0E0A",
"W 	c #486E6F",
"X 	c #69A499",
"Y 	c #5DA7A6",
"Z 	c #5EB7B7",
"` 	c #5FB1B1",
" .	c #B03812",
"..	c #C75B1E",
"+.	c #EB900D",
"@.	c #F29809",
"#.	c #DB721B",
"$.	c #B5471A",
"%.	c #9B3110",
"&.	c #7B2B0F",
"*.	c #4D1E0B",
"=.	c #17110F",
"-.	c #4C7877",
";.	c #68A59A",
">.	c #62A4A2",
",.	c #5DA7A5",
"'.	c #B63F15",
").	c #D7910B",
"!.	c #F29D09",
"~.	c #EB880E",
"{.	c #CB5A1E",
"].	c #AA3A13",
"^.	c #822C0F",
"/.	c #7F2C0F",
"(.	c #55220B",
"_.	c #352D23",
":.	c #EB890D",
"<.	c #DA7017",
"[.	c #D56F1C",
"}.	c #BA4517",
"|.	c #A23411",
"1.	c #7A2B0F",
"2.	c #EC8B0A",
"3.	c #EF940B",
"4.	c #E88A11",
"5.	c #D86D18",
"6.	c #F5B50B",
"7.	c #F8D60C",
"8.	c #F8D70F",
"9.	c #F5C40D",
"0.	c #F0D72A",
"a.	c #F9DC0E",
"b.	c #EBCD31",
"                                        ",
"                                        ",
"            .                           ",
"          + @ #                         ",
"          $ % & *                       ",
"        = - ; > ,                       ",
"        ' ) ! ~ { ]                     ",
"        ^ / ! ( _ : < [                 ",
"      } | 1 2 3 4 5 6 7 8               ",
"      = 9 0 a b c d e f g h             ",
"    i ' j k l m n o p q r s t u v       ",
"    w x y z A B C D E F G H I J K L M   ",
"    N O P 0 Q R S T U V W X t Y Z `     ",
"   .' ..+.1 @.#.$.%.&.*.=.-.;.>.,.      ",
"  ' '.    ).!.~.{.].^./.(._.            ",
"  =           :.<.[.}.|.1.              ",
"              2.@.3.4.5.                ",
"                6.7.8.9.                ",
"                  0.a.b.                ",
"                                        "};
