/* XPM */
static char * matlab_xpm[] = {
"20 20 208 2",
"  	c None",
". 	c #EFEFEF",
"+ 	c #F5F4F4",
"@ 	c #FFFFFF",
"# 	c #000000",
"$ 	c #171414",
"% 	c #404040",
"& 	c #484747",
"* 	c #8C8C8C",
"= 	c #A7A7A8",
"- 	c #DFDFDF",
"; 	c #E4E4E4",
"> 	c #FEFEFE",
", 	c #070707",
"' 	c #2E2E2E",
") 	c #303030",
"! 	c #70706F",
"~ 	c #878685",
"{ 	c #AAB8BE",
"] 	c #955845",
"^ 	c #ECDFDC",
"/ 	c #040708",
"( 	c #354D4B",
"_ 	c #C47814",
": 	c #994521",
"< 	c #242424",
"[ 	c #A9A9AA",
"} 	c #294A4E",
"| 	c #402E21",
"1 	c #E5AF12",
"2 	c #D16F15",
"3 	c #331005",
"4 	c #707070",
"5 	c #1D2E32",
"6 	c #2E5060",
"7 	c #66230C",
"8 	c #EFC112",
"9 	c #E59211",
"0 	c #81270C",
"a 	c #0B1315",
"b 	c #41727A",
"c 	c #1A1A1D",
"d 	c #883611",
"e 	c #F1B50E",
"f 	c #EDAA10",
"g 	c #AB3711",
"h 	c #837571",
"i 	c #0A1415",
"j 	c #2A444A",
"k 	c #2E5460",
"l 	c #2A4448",
"m 	c #321307",
"n 	c #9F3C15",
"o 	c #EFAD0F",
"p 	c #B64015",
"q 	c #B68576",
"r 	c #0C0D0C",
"s 	c #2E515E",
"t 	c #1F343E",
"u 	c #0D1417",
"v 	c #192625",
"w 	c #56210C",
"x 	c #AC4114",
"y 	c #F1AB0D",
"z 	c #F4AC0A",
"A 	c #C75717",
"B 	c #BD6045",
"C 	c #152524",
"D 	c #1A2020",
"E 	c #060201",
"F 	c #0D0502",
"G 	c #1D2B2A",
"H 	c #210D05",
"I 	c #7F2B0F",
"J 	c #BB4E17",
"K 	c #F2A50B",
"L 	c #F4B10A",
"M 	c #CD5E19",
"N 	c #B23E1B",
"O 	c #F6E7E3",
"P 	c #000101",
"Q 	c #0A1515",
"R 	c #2F6060",
"S 	c #559B9A",
"T 	c #5A9E9C",
"U 	c #559A98",
"V 	c #24302F",
"W 	c #0D1416",
"X 	c #0D1717",
"Y 	c #3A1608",
"Z 	c #862D0F",
"` 	c #C15419",
" .	c #F19B0B",
"..	c #F3A50A",
"+.	c #E27C13",
"@.	c #B13912",
"#.	c #D7A394",
"$.	c #0A1716",
"%.	c #3D7373",
"&.	c #5EB3B5",
"*.	c #66B9BA",
"=.	c #5BB2B1",
"-.	c #63A3A1",
";.	c #649D9B",
">.	c #5A9B99",
",.	c #283736",
"'.	c #381608",
").	c #64250D",
"!.	c #A33310",
"~.	c #C95917",
"{.	c #F1990A",
"].	c #F4AB0A",
"^.	c #E68111",
"/.	c #B74016",
"(.	c #BE6246",
"_.	c #FEFCFC",
":.	c #010202",
"<.	c #214141",
"[.	c #5CAAAB",
"}.	c #5EB7B7",
"|.	c #5DA7A6",
"1.	c #69A499",
"2.	c #486E6F",
"3.	c #1A0E0A",
"4.	c #5D240E",
"5.	c #902F0F",
"6.	c #9F3511",
"7.	c #D2651D",
"8.	c #F1940A",
"9.	c #EB8F0F",
"0.	c #C24E1A",
"a.	c #AF3611",
"b.	c #F3DDD5",
"c.	c #0E1918",
"d.	c #488180",
"e.	c #62A4A2",
"f.	c #68A59A",
"g.	c #4C7877",
"h.	c #17110F",
"i.	c #4D1E0B",
"j.	c #7B2B0F",
"k.	c #9B3110",
"l.	c #B5471A",
"m.	c #DB721B",
"n.	c #F29809",
"o.	c #EB900D",
"p.	c #C75B1E",
"q.	c #D79885",
"r.	c #010303",
"s.	c #294544",
"t.	c #2C3936",
"u.	c #1D1811",
"v.	c #55220B",
"w.	c #7F2C0F",
"x.	c #822C0F",
"y.	c #AA3A13",
"z.	c #CB5A1E",
"A.	c #EB880E",
"B.	c #F29D09",
"C.	c #6E4A06",
"D.	c #0E0801",
"E.	c #746E6B",
"F.	c #D89983",
"G.	c #B84B28",
"H.	c #FCF7F6",
"I.	c #040101",
"J.	c #68250D",
"K.	c #A23411",
"L.	c #BA4517",
"M.	c #D56F1C",
"N.	c #DA7017",
"O.	c #EB890D",
"P.	c #643C04",
"Q.	c #D49481",
"R.	c #E1BEB4",
"S.	c #331506",
"T.	c #D86D18",
"U.	c #E88A11",
"V.	c #EF940B",
"W.	c #8A5106",
"X.	c #050200",
"Y.	c #121112",
"Z.	c #202020",
"`.	c #949495",
" +	c #F2DFDA",
".+	c #080500",
"++	c #DCB00C",
"@+	c #F8D70F",
"#+	c #F8D60C",
"$+	c #EABE4B",
"%+	c #93908B",
"&+	c #CDCDCD",
"*+	c #E9E9EA",
"=+	c #060606",
"-+	c #3D3D3D",
";+	c #676766",
">+	c #8F8F8F",
",+	c #C1C0C0",
"'+	c #F1E18F",
")+	c #F9DC0E",
"!+	c #F6E67C",
"~+	c #FCFBF5",
"{+	c #777776",
"]+	c #A7A6A5",
"^+	c #ECE9E9",
"/+	c #F1F1F0",
"(+	c #FEFCE8",
"_+	c #FEF9D3",
". + @ @ @ @ @ @ @ @ @ @ @ @ @ @ @ @ @ @ ",
"# $ % & * = - ; > @ @ @ @ @ @ @ @ @ @ @ ",
"# # # # # # # , ' ) ! ~ { ] ^ @ @ @ @ @ ",
"# # # # # # # # # # # / ( _ : < [ @ @ @ ",
"# # # # # # # # # # # } | 1 2 3 4 @ @ @ ",
"# # # # # # # # # # 5 6 7 8 9 0 4 @ @ @ ",
"# # # # # # # # # a b c d e f g h @ @ @ ",
"# # # # # # # i j k l m n e o p q @ @ @ ",
"# # # # # # r s t u v w x y z A B @ @ @ ",
"# # # # # C D E F G H I J K L M N O @ @ ",
"# P Q R S T U V W X Y Z `  ...+.@.#.@ @ ",
"$.%.&.*.=.-.;.>.,.'.).!.~.{.].^./.(._.@ ",
":.<.[.}.|.T 1.2.3.4.5.6.7.8.L 9.0.a.b.@ ",
"# # c.d.e.f.g.h.i.j.k.l.m.n.z o.p.@.q.@ ",
"# # # r.s.t.u.v.w.x.y.z.A.B.C.D.E.F.G.H.",
"# # # # # # I.J.K.L.M.N.O.P.# # 4 @ Q.R.",
"# # # # # # # S.T.U.V.n.W.X.Y.Z.`.@ @  +",
"# # # # # # # .+++@+#+$+%+&+*+@ @ @ @ @ ",
"# # # =+-+;+>+,+'+)+!+~+@ @ @ @ @ @ @ @ ",
"{+]+^+/+> @ @ @ (+_+@ @ @ @ @ @ @ @ @ @ "};
