/* XPM */
static char*stop_mini[]={
"16 16 50 1",
"r c #dd030a",
"f c #a00305",
"m c #e7030a",
"R c #4b413f",
"B c #f40207",
"q c #291918",
"c c #b1aaa8",
"V c #1a0605",
"j c #1a0f10",
"a c #090909",
"T c #a0a0a0",
"o c #211615",
". c None",
"K c #b10306",
"C c #c20306",
"g c #d10306",
"x c #3d2e2d",
"H c #7b0204",
"l c #ee0306",
"Q c #150102",
"u c #1a0102",
"s c #321b1a",
"z c #320f11",
"S c #291f21",
"N c #5a4e4d",
"L c #210406",
"n c #5a0205",
"e c #290b0b",
"t c #b1aeb1",
"U c #290103",
"d c #c2b6b9",
"J c #320103",
"E c #321e1f",
"h c #3d0103",
"k c #6a0206",
"M c #8d8284",
"y c #3d2123",
"b c #0d0d0d",
"i c #6a5d5b",
"p c #d0d3d0",
"I c #322a29",
"P c #210706",
"v c #a2a5a2",
"F c #a09da0",
"w c #5a5153",
"O c #3d3638",
"A c #8d0207",
"# c #1a1413",
"D c #4b0105",
"G c #150a0b",
".......#abc.....",
".....defgghi....",
"....jkglmmgno...",
"....pqrmrrrs....",
".....tugmruv....",
".wxyzhAlmBCDEEEF",
"GAgrmrlmmlBlrgfH",
"IJHgrmmlllmlKHJL",
"..MNOPglBlmQRF..",
".....iCmllCS....",
".....FHlrrHT....",
".....TDmmlkT....",
"......PrlmU.....",
"......Egmru.....",
"......Ngrr#.....",
"......qHHHV....."};
