/* XPM */
/* Pointer Hand */
static char*hand[]={
"16 16 4 1",
/* colors */
". c None",
"# c #000000",
"o c #ffffff",
/* Pointer HotSpot */
/* Row  00  Column */
"p c #010006",
/* pixels */
".....#..........",
"....#o#.........",
"....#o#.........",
"....#o#.........",
"....#o##........",
".##.#o#o##......",
"#oo##o#o#o##....",
".#oo#ooooo#o#...",
"..#ooooooooo#...",
"..#ooooooooo#...",
"...#oooooooo#...",
"...#ooooooo#....",
"....#oooooo#....",
".....#ooooo#....",
"......#ooooo#...",
".......#ooooo#.."};
